<svg width="21" height="20" viewBox="0 0 21 20" fill="none" xmlns="http://www.w3.org/2000/svg">
<path d="M4 14C4 13.4477 4.44772 13 5 13H15C15.5523 13 16 13.4477 16 14C16 14.5523 15.5523 15 15 15H5C4.44771 15 4 14.5523 4 14Z" fill="#FF7A28"/>
<path d="M4 16.5714C4 16.2558 4.25584 16 4.57143 16H15.4286C15.7442 16 16 16.2558 16 16.5714C16 17.3604 15.3604 18 14.5714 18H5.42857C4.63959 18 4 17.3604 4 16.5714Z" fill="#FF7A28"/>
<path d="M4 8.57143C4 7.15127 5.15127 6 6.57143 6H13.4286C14.8487 6 16 7.15127 16 8.57143C16 8.80812 15.8081 9 15.5714 9H4.42857C4.19188 9 4 8.80812 4 8.57143Z" fill="#FF7A28"/>
<path d="M7.5 11.9286L7.46177 11.8794C7.04461 11.3431 6.24663 11.3072 5.78301 11.8039L5.60217 11.9977C5.14014 12.4927 4.32967 12.3934 4.00082 11.8015L3.75312 11.3556C3.41523 10.7474 3.85502 10 4.55076 10H15.4492C16.145 10 16.5848 10.7474 16.2469 11.3556L15.9992 11.8015C15.6703 12.3934 14.8599 12.4927 14.3978 11.9977L14.217 11.8039C13.7534 11.3072 12.9554 11.3431 12.5382 11.8794L12.5 11.9286C12.0773 12.472 11.256 12.472 10.8333 11.9286C10.4107 11.3851 9.58933 11.3851 9.16667 11.9286C8.744 12.472 7.92267 12.472 7.5 11.9286Z" fill="#FF7A28"/>
</svg>
