<svg width="19" height="19" viewBox="0 0 19 19" fill="none" xmlns="http://www.w3.org/2000/svg">
<g clip-path="url(#clip0_48_293)">
<path d="M17.4167 10.2917V11.875C17.4167 15.8333 15.8333 17.4167 11.875 17.4167H7.125C3.16667 17.4167 1.58333 15.8333 1.58333 11.875V10.6717M8.70833 1.58334H7.125C3.16667 1.58334 1.58333 3.16667 1.58333 7.125" stroke="#868686" stroke-width="1.5" stroke-linecap="round" stroke-linejoin="round"/>
<path d="M15.7779 7.13371L16.6092 6.30246C17.6858 5.22579 18.1925 3.97496 16.6092 2.39163C15.0258 0.808295 13.775 1.31496 12.6983 2.39163L6.46 8.62996C6.2225 8.86746 5.985 9.33454 5.9375 9.67496L5.59708 12.0579C5.47042 12.9208 6.08 13.5225 6.94292 13.4037L9.32583 13.0633C9.65833 13.0158 10.1254 12.7783 10.3708 12.5408L12.8883 10.0233L13.4662 9.44538" stroke="#868686" stroke-width="1.5" stroke-miterlimit="10" stroke-linecap="round" stroke-linejoin="round"/>
<path d="M11.8037 3.28384C12.0663 4.216 12.5637 5.06514 13.2485 5.74991C13.9333 6.43469 14.7824 6.93216 15.7146 7.19467" stroke="#868686" stroke-width="1.5" stroke-miterlimit="10" stroke-linecap="round" stroke-linejoin="round"/>
</g>
<defs>
<clipPath id="clip0_48_293">
<rect width="19" height="19" fill="white"/>
</clipPath>
</defs>
</svg>
