<svg width="20" height="20" viewBox="0 0 20 20" fill="none" xmlns="http://www.w3.org/2000/svg">
<path fill-rule="evenodd" clip-rule="evenodd" d="M3 0C1.34315 0 0 1.34315 0 3V17C0 18.6569 1.34315 20 3 20H17C18.6569 20 20 18.6569 20 17V6.24264C20 5.44699 19.6839 4.68393 19.1213 4.12132L15.8787 0.87868C15.3161 0.316071 14.553 0 13.7574 0H3ZM4 14C4 12.8954 4.89543 12 6 12H14C15.1046 12 16 12.8954 16 14V17C16 17.5523 15.5523 18 15 18H5C4.44771 18 4 17.5523 4 17V14ZM13 7H7C5.89543 7 5 6.10457 5 5V3C5 2.44772 5.44772 2 6 2H13.5858C13.851 2 14.1054 2.10536 14.2929 2.29289L14.7071 2.70711C14.8946 2.89464 15 3.149 15 3.41421V5C15 6.10457 14.1046 7 13 7Z" fill="#FF7A28"/>
</svg>
